<?xml version="1.0" encoding="UTF-8"?>
<svg width="380px" height="149px" viewBox="0 0 380 149" version="1.1" xmlns="http://www.w3.org/2000/svg" xmlns:xlink="http://www.w3.org/1999/xlink">
    <!-- Generator: Sketch 47.1 (45422) - http://www.bohemiancoding.com/sketch -->
    <title>logo</title>
    <desc>Created with Sketch.</desc>
    <defs></defs>
    <g id="Page-1" stroke="none" stroke-width="1" fill="none" fill-rule="evenodd">
        <g id="logo" fill-rule="nonzero" fill="#FFFFFF">
            <g id="Group_2" transform="translate(170.000000, 16.000000)">
                <g id="line1">
                    <g id="Vector">
                        <path d="M96.8242902,92.1560443 C87.6576347,103.36012 73.7498584,111.723729 56.9969852,111.723729 C25.5462133,111.723729 3.57789508,88.053233 3.57789508,57.7548516 C3.57789508,27.9300422 25.3880345,3.78616722 55.5745332,3.78616722 C70.4308038,3.78616722 83.8646223,10.098293 93.0312778,20.039909 L95.2438523,17.9884648 C85.6030461,7.41563812 71.3791051,0.945702341 55.5745332,0.945702341 C23.6496106,0.945702341 0.417000021,25.8785401 0.417000021,57.7548516 C0.417000021,90.2623352 23.9655825,114.564196 56.9969852,114.564196 C74.0658302,114.564196 89.7122232,106.200587 99.1950435,94.0497535 L96.8242902,92.1560443 Z" id="Shape"></path>
                    </g>
                    <g id="Vector_2" transform="translate(111.000000, 0.000000)">
                        <path d="M96.6292902,92.1561443 C87.4626347,103.36022 73.5548584,111.723829 56.8019852,111.723829 C25.3512133,111.723829 3.38289508,88.053333 3.38289508,57.7549516 C3.38289508,27.9301422 25.1930344,3.78626722 55.3795332,3.78626722 C70.2358038,3.78626722 83.6696223,10.098393 92.8362778,20.040009 L95.0488523,17.9885648 C85.4080461,7.41573812 71.1841051,0.945802341 55.3795332,0.945802341 C23.4546106,0.945802341 0.222003885,25.8786401 0.222003885,57.7549516 C0.222003885,90.2624352 23.7705825,114.564296 56.8019852,114.564296 C73.8708302,114.564296 89.5172232,106.200687 99.0000435,94.0498535 L96.6292902,92.1561443 Z" id="Shape"></path>
                    </g>
                </g>
            </g>
            <g id="logomark">
                <g id="Group_3">
                    <g id="Vector_3" transform="translate(1.000000, 33.000000)">
                        <polygon id="Shape" points="32.2703155 52.6497897 34.5340714 51.3461171 54.196435 39.9713401 54.2352527 39.9921916 91.3185179 18.624077 91.3096003 0.316400909 0.538390046 52.5991693 112.012043 116.000335 127.355671 107.16471 98.947121 90.8759487"></polygon>
                    </g>
                    <g id="Vector_4">
                        <polygon id="Shape" points="95.4524194 53.4285482 95.4718283 95.8788899 111.221469 104.835296 111.17216 0 -1.59392706e-07 64.0299867 0.00895361243 82.8666865 95.4404856 27.9048377"></polygon>
                    </g>
                    <g id="Vector_5" transform="translate(39.000000, 0.000000)">
                        <polygon id="Shape" points="75.3549457 110.218618 56.474576 99.4786949 56.4731334 99.489055 53.0811714 97.5476436 16.2456317 76.5951149 0.545302687 85.6439751 90.9419716 137.468407 90.8807287 8.95043642 75.3043253 0.0208359006"></polygon>
                    </g>
                </g>
            </g>
        </g>
    </g>
</svg>