<svg width="380" height="149" viewBox="0 0 380 149" version="1.1" xmlns="http://www.w3.org/2000/svg" xmlns:xlink="http://www.w3.org/1999/xlink">
<g id="Canvas" fill="none">
<g id="CC _ Logo Design-1">
<g id="Group">
<g id="Group_2">
<g id="line1">
<g id="Vector">
<path d="M 49.9776 47.2835C 45.2256 53.0917 38.0158 57.4274 29.3311 57.4274C 13.027 57.4274 1.63861 45.1566 1.63861 29.4499C 1.63861 13.9887 12.945 1.4725 28.5937 1.4725C 36.2952 1.4725 43.2593 4.74471 48.0113 9.89845L 49.1583 8.83498C 44.1605 3.35402 36.7868 1.21358e-06 28.5937 1.21358e-06C 12.0438 1.21358e-06 1.08521e-08 12.9252 1.08521e-08 29.4499C 1.08521e-08 46.3018 12.2076 58.8999 29.3311 58.8999C 38.1796 58.8999 46.2907 54.5642 51.2066 48.2652L 49.9776 47.2835Z" transform="translate(170.417 16.9457) scale(1.92901)" fill="#000000"/>
</g>
<g id="Vector_2">
<path d="M 49.9776 47.2835C 45.2256 53.0917 38.0158 57.4274 29.3311 57.4274C 13.027 57.4274 1.63861 45.1566 1.63861 29.4499C 1.63861 13.9887 12.945 1.4725 28.5937 1.4725C 36.2952 1.4725 43.2593 4.74471 48.0113 9.89845L 49.1583 8.83498C 44.1605 3.35402 36.7868 1.21358e-06 28.5937 1.21358e-06C 12.0438 1.21358e-06 2.01415e-06 12.9252 2.01415e-06 29.4499C 2.01415e-06 46.3018 12.2076 58.8999 29.3311 58.8999C 38.1796 58.8999 46.2907 54.5642 51.2066 48.2652L 49.9776 47.2835Z" transform="translate(281.222 16.9458) scale(1.92901)" fill="#000000"/>
</g>
</g>
</g>
<g id="logomark">
<g id="Group_3">
<g id="Vector_3">
<path d="M 24.1968 39.9062L 25.923 38.9121L 40.9163 30.2384L 40.9459 30.2543L 69.2233 13.9603L 69.2165 6.93473e-07L 3.47267e-08 39.8676L 85.0029 88.2134L 96.703 81.4759L 75.0404 69.0551L 24.1968 39.9062Z" transform="translate(1.53839 33.3164) scale(1.31141)" fill="#000000"/>
</g>
<g id="Vector_4">
<path d="M 72.7861 40.7413L 72.8009 73.1113L 84.8106 79.9409L 84.773 0L -1.21543e-07 48.8253L 0.00682747 63.189L 72.777 21.2785L 72.7861 40.7413Z" transform="scale(1.31141)" fill="#000000"/>
</g>
<g id="Vector_5">
<path d="M 57.0452 84.03L 42.6482 75.8404L 42.6471 75.8483L 40.0606 74.3679L 11.9721 58.3908L 2.04887e-06 65.2909L 68.9309 104.809L 68.8842 6.80916L 57.0066 4.90984e-10L 57.0452 84.03Z" transform="translate(39.5453 0.0208359) scale(1.31141)" fill="#000000"/>
</g>
</g>
</g>
</g>
</g>
</g>
</svg>
