<?xml version="1.0" encoding="UTF-8"?>
<svg width="488px" height="419px" viewBox="0 0 488 419" version="1.1" xmlns="http://www.w3.org/2000/svg" xmlns:xlink="http://www.w3.org/1999/xlink">
    <!-- Generator: Sketch 50.2 (55047) - http://www.bohemiancoding.com/sketch -->
    <title>next (1)</title>
    <desc>Created with Sketch.</desc>
    <defs></defs>
    <g id="Page-1" stroke="none" stroke-width="1" fill="none" fill-rule="evenodd">
        <g id="next-(1)" transform="translate(244.000000, 209.000000) scale(1, -1) translate(-244.000000, -209.000000) translate(0.000000, -1.000000)" fill="#FFFFFF" fill-rule="nonzero">
            <path d="M483.058,181.613 L267.558,4.013 C263.558,0.713 257.958,0.013 253.258,2.213 C248.558,4.413 245.558,9.213 245.558,14.413 L245.558,108.013 C140.958,111.813 69.058,148.713 31.658,217.813 C-0.542,277.413 -0.242,348.013 0.058,394.713 C0.058,398.513 0.058,402.113 0.058,405.513 C0.058,411.613 4.158,417.013 10.158,418.613 C11.258,418.913 12.458,419.013 13.558,419.013 C18.358,419.013 22.858,416.513 25.258,412.213 C98.258,283.513 158.358,277.313 245.458,277.013 L245.458,370.313 C245.458,375.513 248.458,380.313 253.258,382.513 C258.058,384.713 263.558,384.013 267.658,380.713 L483.058,202.513 C486.158,199.913 487.958,196.113 487.958,192.113 C487.958,188.113 486.158,184.213 483.058,181.613 Z M272.558,341.613 L272.558,263.513 C272.558,259.913 271.158,256.513 268.558,254.013 C266.058,251.513 262.558,250.013 259.058,250.013 C204.658,250.013 162.958,251.513 122.458,270.413 C87.458,286.713 57.158,314.413 27.258,357.913 C28.458,318.213 33.658,270.813 55.358,230.713 C89.758,167.113 156.358,135.613 259.058,134.713 C266.458,134.613 272.458,128.613 272.458,121.213 L272.458,43.013 L453.158,192.113 L272.558,341.613 Z" id="Shape"></path>
        </g>
    </g>
</svg>